<?xml version="1.0" encoding="iso-8859-1"?>
<!-- Generator: Adobe Illustrator 19.0.0, SVG Export Plug-In . SVG Version: 6.00 Build 0)  -->
<svg version="1.1" id="Capa_1" xmlns="http://www.w3.org/2000/svg" xmlns:xlink="http://www.w3.org/1999/xlink" x="0px" y="0px"
	 viewBox="0 0 502.624 502.624" style="enable-background:new 0 0 502.624 502.624;" xml:space="preserve" >
<g style="fill: #9B9B9B;">
	<g>
		<path  d="M403.312,161.656l-56,56v-76.688h35.312L251.312,9.656l-72,72v-4.688c0-35.346-28.654-64-64-64c-35.346,0-64,28.654-64,64
			v64c0.019,18.609,5.95,36.732,16.936,51.752L0,260.968h27.312v232h448v-232h27.312L403.312,161.656z M345.024,366.632
			c0.496-1.944,0.872-3.912,1.2-5.896c0.16-0.944,0.368-1.872,0.488-2.832c0.387-2.963,0.587-5.948,0.6-8.936v-16
			c0-22.091,17.909-40,40-40c22.091,0,40,17.909,40,40v16c-0.035,30.913-25.087,55.965-56,56h-50.808
			c1.368-1.104,2.608-2.32,3.888-3.512c0.576-0.536,1.192-1.024,1.752-1.6c2.069-2.064,4.012-4.252,5.816-6.552
			c0.44-0.56,0.8-1.16,1.224-1.736c1.32-1.792,2.584-3.616,3.736-5.52c0.544-0.904,1.024-1.848,1.528-2.776
			c0.904-1.656,1.76-3.328,2.528-5.056c0.464-1.032,0.888-2.08,1.304-3.136c0.672-1.728,1.272-3.472,1.816-5.248
			C344.424,368.768,344.752,367.704,345.024,366.632z M179.312,104.28l72-72L344,124.968H179.312V104.28z M67.312,140.968v-64
			c0-26.51,21.49-48,48-48c26.51,0,48,21.49,48,48v64c0.075,28.668,14.065,55.515,37.52,72h-61.52
			c-20.86-0.021-40.684-9.092-54.336-24.864C73.598,175.035,67.325,158.296,67.312,140.968z M155.312,476.968h-112v-216h112V476.968
			z M155.312,244.968H38.624l40.184-40.184c0.136,0.128,0.296,0.24,0.432,0.376c0.624,0.584,1.296,1.104,1.936,1.672
			c1.6,1.408,3.2,2.792,4.88,4.072c0.904,0.688,1.848,1.312,2.776,1.968c1.496,1.056,3.008,2.088,4.56,3.04
			c1.04,0.64,2.112,1.232,3.2,1.832c1.52,0.848,3.056,1.664,4.624,2.4c1.12,0.544,2.256,1.056,3.4,1.552
			c1.6,0.688,3.2,1.32,4.8,1.912c1.16,0.424,2.312,0.8,3.488,1.208c1.712,0.544,3.448,1,5.192,1.432
			c1.128,0.28,2.248,0.592,3.392,0.8c1.944,0.4,3.912,0.688,5.88,0.96c0.984,0.136,1.952,0.32,2.936,0.424
			c2.991,0.334,5.998,0.512,9.008,0.536H144l11.312,11.312V244.968z M243.312,476.968h-40v-64c0.015-2.701,0.259-5.396,0.728-8.056
			c0.056-0.32,0.088-0.64,0.144-0.96c0.477-2.449,1.145-4.856,2-7.2c0.144-0.4,0.28-0.8,0.432-1.184
			c0.879-2.252,1.927-4.434,3.136-6.528c0.208-0.352,0.424-0.704,0.64-1.056c1.266-2.086,2.689-4.073,4.256-5.944
			c0.184-0.216,0.384-0.416,0.568-0.624c1.647-1.899,3.439-3.667,5.36-5.288l0.152-0.136c1.953-1.597,4.029-3.039,6.208-4.312
			c0.296-0.176,0.584-0.368,0.888-0.544c2.122-1.185,4.331-2.207,6.608-3.056c0.416-0.16,0.8-0.312,1.248-0.456
			c2.314-0.801,4.686-1.421,7.096-1.856l0.536-0.08V476.968z M299.312,476.968h-40V365.704c0.128,0,0.264,0,0.384,0
			c0.536,0.096,1.04,0.272,1.6,0.384c2.035,0.431,4.039,0.995,6,1.688c0.8,0.296,1.6,0.64,2.4,0.976
			c1.625,0.683,3.211,1.455,4.752,2.312c0.8,0.432,1.544,0.864,2.288,1.336c1.585,1.012,3.111,2.115,4.568,3.304
			c0.544,0.44,1.12,0.8,1.64,1.288c1.926,1.689,3.715,3.526,5.352,5.496c0.304,0.368,0.544,0.8,0.8,1.152
			c1.294,1.654,2.477,3.391,3.544,5.2c0.44,0.752,0.8,1.544,1.224,2.32c0.806,1.559,1.524,3.161,2.152,4.8
			c0.336,0.872,0.656,1.752,0.936,2.656c0.168,0.544,0.256,1.12,0.408,1.672c-0.2,0.088-0.392,0.2-0.592,0.28
			c-0.616,0.256-1.248,0.472-1.88,0.704c-1.432,0.536-2.88,1.024-4.352,1.448c-0.736,0.208-1.475,0.403-2.216,0.584
			c-1.472,0.352-2.968,0.64-4.464,0.872c-0.672,0.104-1.344,0.232-2.024,0.312c-2.162,0.288-4.339,0.448-6.52,0.48v16h24V476.968z
			 M313.488,389.792c-0.56,0.536-1.312,1.144-1.976,1.712c-0.072-0.192-0.176-0.36-0.248-0.552c-0.975-2.633-2.124-5.199-3.44-7.68
			c-0.16-0.304-0.296-0.616-0.456-0.912c-1.389-2.501-2.945-4.907-4.656-7.2c-0.328-0.44-0.64-0.88-0.976-1.304
			c-1.716-2.206-3.573-4.298-5.56-6.264c-0.36-0.36-0.736-0.696-1.112-1.048c-2.088-1.993-4.306-3.845-6.64-5.544
			c-0.152-0.104-0.312-0.2-0.464-0.304c-2.317-1.624-4.738-3.093-7.248-4.4c-0.36-0.192-0.712-0.4-1.072-0.584
			c-2.548-1.265-5.178-2.358-7.872-3.272c-0.52-0.176-1.032-0.352-1.552-0.512c-2.734-0.867-5.525-1.546-8.352-2.032
			c-0.456-0.08-0.92-0.128-1.384-0.192l-1.168-0.16v-0.576h-16v0.552c-31.969,4.053-55.95,31.223-56,63.448v64h-16v-248h32v32h96
			v-56c0.17-26.341-21.045-47.833-47.387-48.003c-2.817-0.018-5.629,0.213-8.405,0.691c-0.368,0.064-0.728,0.096-1.096,0.168
			c-2.37,0.451-4.702,1.082-6.976,1.888l-1.256,0.464c-2.205,0.843-4.344,1.849-6.4,3.008c-0.32,0.184-0.624,0.384-0.944,0.576
			c-2.12,1.244-4.142,2.648-6.048,4.2l-0.048,0.048c-1.874,1.572-3.625,3.283-5.24,5.12c-0.232,0.264-0.48,0.512-0.712,0.8
			c-1.515,1.793-2.898,3.694-4.136,5.688c-0.24,0.376-0.464,0.752-0.688,1.136c-1.203,2.031-2.254,4.149-3.144,6.336
			c-0.144,0.352-0.256,0.704-0.392,1.064c-0.884,2.302-1.588,4.669-2.104,7.08c-0.856-0.744-1.728-1.472-2.552-2.248
			c-0.824-0.776-1.416-1.32-2.088-2.016c-1.6-1.672-3.128-3.432-4.576-5.24c-0.352-0.44-0.744-0.848-1.088-1.296
			c-1.742-2.302-3.344-4.707-4.8-7.2c-0.368-0.624-0.664-1.288-1.016-1.928c-1.032-1.888-2-3.8-2.856-5.776
			c-0.4-0.92-0.752-1.856-1.112-2.784c-0.693-1.781-1.315-3.592-1.864-5.432c-0.296-0.992-0.584-1.992-0.8-3
			c-0.488-1.936-0.864-3.896-1.192-5.872c-0.144-0.904-0.336-1.8-0.448-2.72c-0.391-2.902-0.602-5.824-0.632-8.752h152v208
			c-0.011,2.306-0.166,4.609-0.464,6.896c-0.088,0.72-0.24,1.424-0.36,2.136c-0.256,1.56-0.56,3.104-0.944,4.632
			c-0.2,0.8-0.424,1.6-0.664,2.352c-0.432,1.448-0.936,2.872-1.48,4.28c-0.288,0.728-0.56,1.464-0.872,2.176
			c-0.688,1.6-1.464,3.08-2.288,4.568c-0.272,0.488-0.496,0.992-0.8,1.472c-1.151,1.941-2.417,3.811-3.792,5.6
			c-0.296,0.384-0.64,0.736-0.944,1.112c-1.12,1.376-2.288,2.72-3.544,4C314.624,388.736,314.048,389.256,313.488,389.792z
			 M242.44,212.376c-0.944-0.12-1.872-0.344-2.816-0.496c-1.984-0.328-4-0.688-5.912-1.184c-1.096-0.28-2.16-0.64-3.24-0.968
			c-1.76-0.536-3.52-1.112-5.24-1.784c-1.112-0.432-2.208-0.92-3.296-1.416c-0.888-0.4-1.744-0.856-2.616-1.296v-0.264
			c0-17.673,14.327-32,32-32c17.673,0,32,14.327,32,32v40h-64.008v-16h32v-16C248.345,212.956,245.382,212.759,242.44,212.376z
			 M331.312,476.968h-16v-56h16V476.968z M459.312,476.968h-112v-56h24c39.746-0.044,71.956-32.254,72-72v-16
			c0-30.928-25.072-56-56-56c-1.921,0-3.841,0.099-5.752,0.296c-0.736,0.072-1.44,0.232-2.168,0.328
			c-1.144,0.16-2.296,0.296-3.416,0.528c-0.864,0.176-1.696,0.44-2.544,0.656c-0.848,0.216-1.912,0.448-2.84,0.744
			c-0.928,0.296-1.784,0.648-2.672,0.976s-1.68,0.584-2.488,0.928c-0.808,0.344-1.776,0.848-2.656,1.28
			c-0.752,0.368-1.528,0.704-2.256,1.104c-0.872,0.48-1.696,1.024-2.536,1.544c-0.696,0.432-1.416,0.8-2.096,1.296
			c-0.8,0.552-1.6,1.176-2.4,1.768c-0.656,0.496-1.328,0.968-1.96,1.496c-0.632,0.528-1.44,1.296-2.144,1.952
			c-0.704,0.656-1.256,1.112-1.84,1.712l-0.232,0.232v-32.84h112V476.968z M347.312,244.968v-4.688l56-56L464,244.968H347.312z"/>
	</g>
</g>
<g style="fill: #9B9B9B;">
	<g>
		<path d="M99.312,276.968c-22.091,0-40,17.909-40,40v48h80v-48C139.312,294.877,121.403,276.968,99.312,276.968z M123.312,348.968
			h-48v-32c0-13.255,10.745-24,24-24s24,10.745,24,24V348.968z"/>
	</g>
</g>
<g style="fill: #9B9B9B;">
	<g>
		<circle cx="91.312" cy="92.968" r="8"/>
	</g>
</g>
<g style="fill: #9B9B9B;">
	<g>
		<circle cx="139.312" cy="92.968" r="8"/>
	</g>
</g>
<g>
	<g style="fill: #9B9B9B;">
		<circle cx="371.312" cy="332.968" r="8"/>
	</g>
</g>
<g style="fill: #9B9B9B;">
	<g>
		<circle cx="403.312" cy="332.968" r="8"/>
	</g>
</g>
<g>
</g>
<g>
</g>
<g>
</g>
<g>
</g>
<g>
</g>
<g>
</g>
<g>
</g>
<g>
</g>
<g>
</g>
<g>
</g>
<g>
</g>
<g>
</g>
<g>
</g>
<g>
</g>
<g>
</g>
</svg>
